<svg xmlns="http://www.w3.org/2000/svg" width="200" height="160" xmlns:xlink="http://www.w3.org/1999/xlink">
  <defs>
    <path id="a" d="M0 .977h123V141H0z"/>
  </defs>
  <g fill="none" fill-rule="evenodd">
    <path d="M0 0h200v160H0z"/>
    <g transform="translate(39 10)">
      <path fill="#E8EFFB" d="M93.4108 143h-65c-4.694 0-8.5-3.806-8.5-8.5s3.806-8.5 8.5-8.5h65c4.694 0 8.5 3.806 8.5 8.5s-3.806 8.5-8.5 8.5"/>
      <path fill="#C7CFE2" d="M68.9577 36.0892v25.365c0 2.002-.189 3.624 1.812 3.624h38.048c7.004 0 12.682-5.678 12.682-12.683v-7.247c0-7.004-5.678-12.683-12.682-12.683h-38.048c-2.001 0-1.812 1.623-1.812 3.624m-13.1036 0v25.365c0 2.002-1.622 3.624-3.624 3.624h-38.047c-7.005 0-12.683-5.678-12.683-12.683v-7.247c0-7.004 5.678-12.683 12.683-12.683h38.047c2.002 0 3.624 1.623 3.624 3.624"/>
      <path stroke="#282B2E" stroke-width="3" d="M68.9577 36.0892v25.365c0 2.002-.189 3.624 1.812 3.624h38.048c3.313 0 6.33-1.271 8.589-3.352 1.19-1.096 2.17-2.417 2.872-3.895.783-1.647 1.221-3.49 1.221-5.436v-7.247c0-7.004-5.678-12.683-12.682-12.683h-38.048c-2.001 0-1.812 1.623-1.812 3.624zm-64.2889.6721c2.324-2.634 5.725-4.296 9.514-4.296h38.048c2.001 0 3.623 1.623 3.623 3.624v25.365c0 2.001-1.622 3.624-3.623 3.624h-38.048c-7.005 0-12.683-5.678-12.683-12.683v-3.247" stroke-linecap="round" stroke-linejoin="round"/>
      <path fill="#C7CFE2" d="M73.9721 57.8308h-25.365c-2.002 0-3.624-1.622-3.624-3.624V6.0998c0-2.001 1.622-3.623 3.624-3.623h25.365c2.001 0 3.624 1.622 3.624 3.623v48.107c0 2.002-1.623 3.624-3.624 3.624"/>
      <path stroke="#282B2E" stroke-width="3" d="M73.9721 57.8308h-25.365c-2.002 0-3.624-1.622-3.624-3.624V6.0998c0-2.001 1.622-3.623 3.624-3.623h25.365c2.001 0 3.624 1.622 3.624 3.623v48.107c0 2.002-1.623 3.624-3.624 3.624z" stroke-linecap="round" stroke-linejoin="round"/>
      <path fill="#E8EFFB" d="M84.8429 95.8788h-47.107c-16.01 0-28.989-12.979-28.989-28.989v-28.989c0-16.01 12.979-28.989 28.989-28.989h47.107c16.01 0 28.989 12.979 28.989 28.989v28.989c0 16.01-12.979 28.989-28.989 28.989"/>
      <path fill="#F3F9FF" d="M84.8429 86.8197h-47.107c-16.01 0-28.989-12.979-28.989-28.989v-19.93c0-16.01 12.979-28.989 28.989-28.989h47.107c16.01 0 28.989 12.979 28.989 28.989v19.93c0 16.01-12.979 28.989-28.989 28.989"/>
      <path fill="#36393E" d="M83.0311 70.5135h-43.483c-10.007 0-18.118-8.112-18.118-18.118v-12.683c0-10.006 8.111-18.118 18.118-18.118h43.483c10.006 0 18.118 8.112 18.118 18.118v12.683c0 10.006-8.112 18.118-18.118 18.118"/>
      <path fill="#282B30" d="M83.0311 21.5947h-43.483c-10.007 0-18.118 8.112-18.118 18.118v7.247c0-10.006 8.111-18.118 18.118-18.118h43.483c10.006 0 18.118 8.112 18.118 18.118v-7.247c0-10.006-8.112-18.118-18.118-18.118"/>
      <path fill="#4CD964" d="M91.4876 46.8965c0 3.002-2.434 5.435-5.435 5.435-3.002 0-5.436-2.433-5.436-5.435s2.434-5.435 5.436-5.435c3.001 0 5.435 2.433 5.435 5.435m-50.4502 0c0 3.002-2.434 5.435-5.435 5.435-3.002 0-5.436-2.433-5.436-5.435s2.434-5.435 5.436-5.435c3.001 0 5.435 2.433 5.435 5.435"/>
      <path fill="#E8EFFB" d="M77.5957 95.8788h-32.612v-16.306c0-1.001.811-1.812 1.811-1.812h28.989c1.001 0 1.812.811 1.812 1.812v16.306z"/>
      <mask id="b" fill="#fff">
        <use xlink:href="#a"/>
      </mask>
      <path fill="#C7CFE2" d="M77.596 95.879H44.984V86.82h32.612" mask="url(#b)"/>
      <path stroke="#282B2E" stroke-width="3" d="M99.2248 92.0653c-4.238 2.426-9.148 3.813-14.382 3.813h-47.107c-16.01 0-28.989-12.978-28.989-28.988v-28.989c0-16.01 12.979-28.989 28.989-28.989h47.107c4.003 0 7.816.811 11.284 2.278m9.2143 6.2124c1.112 1.112 2.134 2.313 3.054 3.593 1.519 2.113 2.761 4.439 3.673 6.925 1.141 3.112 1.764 6.473 1.764 9.98v28.989c0 5.783-1.693 11.17-4.611 15.693" stroke-linecap="round" stroke-linejoin="round" mask="url(#b)"/>
      <path stroke="#282B2E" stroke-width="3" d="M83.0311 70.5135h-43.483c-10.007 0-18.118-8.112-18.118-18.118v-12.683c0-10.006 8.111-18.118 18.118-18.118h43.483c10.006 0 18.118 8.112 18.118 18.118v12.683c0 10.006-8.112 18.118-18.118 18.118zM44.9833 95.4809v-15.908c0-1.001.811-1.812 1.812-1.812h28.989c1 0 1.811.811 1.811 1.812v15.908" stroke-linecap="round" stroke-linejoin="round" mask="url(#b)"/>
    </g>
  </g>
</svg>